HIERARCHY
ROOT Hips
{
	OFFSET -3.958830 18.904000 13.208200
	CHANNELS 6 Xposition Yposition Zposition Zrotation Yrotation Xrotation 
	JOINT LHipJoint
	{
		OFFSET 0.000000 0.000000 0.000000
		CHANNELS 3 Zrotation Yrotation Xrotation
		JOINT LeftUpLeg
		{
			OFFSET 1.800000 -1.400000 0.085000
			CHANNELS 3 Zrotation Yrotation Xrotation
			JOINT LeftLeg
			{
				OFFSET 2.215000 -6.000000 0.000000
				CHANNELS 3 Zrotation Yrotation Xrotation
				JOINT LeftFoot
				{
					OFFSET 2.500000 -6.900000 0.000000
					CHANNELS 3 Zrotation Yrotation Xrotation
					JOINT LeftToeBase
					{
						OFFSET 0.200000 -0.500000 1.950000
						CHANNELS 3 Zrotation Yrotation Xrotation
						End Site
						{
							OFFSET 0.000000 0.000000 0.000000
						}
					}
				}
			}
		}
	}
	JOINT RHipJoint
	{
		OFFSET 0.000000 0.000000 0.000000
		CHANNELS 3 Zrotation Yrotation Xrotation
		JOINT RightUpLeg
		{
			OFFSET -1.800000 -1.400000 0.085000
			CHANNELS 3 Zrotation Yrotation Xrotation
			JOINT RightLeg
			{
				OFFSET -2.215000 -6.000000 0.000000
				CHANNELS 3 Zrotation Yrotation Xrotation
				JOINT RightFoot
				{
					OFFSET -2.500000 -6.900000 0.000000
					CHANNELS 3 Zrotation Yrotation Xrotation
					JOINT RightToeBase
					{
						OFFSET -0.200000 -0.500000 1.950000
						CHANNELS 3 Zrotation Yrotation Xrotation
						End Site
						{
							OFFSET 0.000000 0.000000 0.000000
						}
					}
				}
			}
		}
	}
	JOINT LowerBack
	{
		OFFSET 0.000000 0.000000 0.000000
		CHANNELS 3 Zrotation Yrotation Xrotation
		JOINT Spine
		{
			OFFSET -0.087000 1.940000 -0.288900
			CHANNELS 3 Zrotation Yrotation Xrotation
			JOINT Spine1
			{
				OFFSET 0.000000 1.950000 0.060000
				CHANNELS 3 Zrotation Yrotation Xrotation
				JOINT Neck
				{
					OFFSET 0.000000 0.000000 0.000000
					CHANNELS 3 Zrotation Yrotation Xrotation
					JOINT Neck1
					{
						OFFSET 0.000000 1.600000 0.340000
						CHANNELS 3 Zrotation Yrotation Xrotation
						JOINT Head
						{
							OFFSET 0.000000 1.667000 -0.240000
							CHANNELS 3 Zrotation Yrotation Xrotation
							End Site
							{
								OFFSET 0.000000 0.000000 0.000000
							}
						}
					}
				}
				JOINT LeftShoulder
				{
					OFFSET 0.000000 0.000000 0.000000
					CHANNELS 3 Zrotation Yrotation Xrotation
					JOINT LeftArm
					{
						OFFSET 2.700000 1.550000 -0.730000
						CHANNELS 3 Zrotation Yrotation Xrotation
						JOINT LeftForeArm
						{
							OFFSET 5.450000 0.000000 0.000000
							CHANNELS 3 Zrotation Yrotation Xrotation
							JOINT LeftHand
							{
								OFFSET 3.450000 0.000000 0.000000
								CHANNELS 3 Zrotation Yrotation Xrotation
								JOINT LeftHandIndex1
								{
									OFFSET 0.750000 0.000000 0.000000
									CHANNELS 3 Zrotation Yrotation Xrotation
									End Site
									{
										OFFSET 0.000000 0.000000 0.000000
									}
								}
							}
						}
					}
				}
				JOINT RightShoulder
				{
					OFFSET 0.000000 0.000000 0.000000
					CHANNELS 3 Zrotation Yrotation Xrotation
					JOINT RightArm
					{
						OFFSET -2.700000 1.550000 -0.730000
						CHANNELS 3 Zrotation Yrotation Xrotation
						JOINT RightForeArm
						{
							OFFSET -5.450000 0.000000 0.000000
							CHANNELS 3 Zrotation Yrotation Xrotation
							JOINT RightHand
							{
								OFFSET -3.450000 0.000000 0.000000
								CHANNELS 3 Zrotation Yrotation Xrotation
								JOINT RightHandIndex1
								{
									OFFSET -0.750000 0.000000 0.000000
									CHANNELS 3 Zrotation Yrotation Xrotation
									End Site
									{
										OFFSET 0.000000 0.000000 0.000000
									}
								}
							}
						}
					}
				}
			}
		}
	}
}
MOTION
Frames: 9
Frame Time: 0.016667
-0.960270 14.223580 -5.574130 -47.817751 0.644103 16.526469 -16.123735 11.035109 5.986104 14.009140 -11.663989 -40.863137 -39.925378 27.025704 44.132281 1.707031 12.988107 0.082487 0.735000 0.533240 0.818430 18.009616 -7.249421 3.479920 23.793077 6.089271 -17.579664 -66.560340 14.565555 29.503402 -2.365384 -9.985539 0.978798 0.166140 -0.032670 0.431040 -1.859075 -5.057851 -9.469971 -4.198330 8.674881 61.127597 4.758317 8.150091 22.957611 2.031931 5.287812 -11.930545 6.179460 0.723576 45.646194 -0.162510 7.351290 -14.896650 -7.064665 -21.033104 3.498064 -9.139220 -21.133582 -5.562546 28.493229 -4.024512 -4.350322 -3.971269 3.093872 0.522270 -0.003160 0.349770 0.071050 0.519558 21.031650 11.429631 24.416973 -4.685923 -14.564003 7.756184 47.837031 0.317635 1.872450 -1.617715 0.113510 0.020640 -0.223490 -0.153790 
-0.888930 14.326820 -5.587360 -49.234527 -1.091935 17.687013 -16.116619 11.204849 5.992669 14.370510 -10.089116 -41.126695 -36.775461 27.933754 47.210971 1.683533 13.307188 -0.074009 0.806120 0.636430 0.857600 17.989860 -7.417707 3.340818 20.909663 6.913395 -16.695071 -54.977089 14.387948 35.437747 -2.209392 -9.350916 1.137857 0.219540 -0.080630 0.442370 -1.862904 -4.961916 -9.359181 -4.390477 10.340286 61.008512 5.504785 9.553412 23.208159 1.480729 4.436065 -11.929895 4.655885 1.899721 45.607109 -0.236510 7.933300 -17.805160 -8.480885 -22.618744 3.792887 -7.384389 -20.431069 -6.395513 28.881372 -4.191598 -4.556683 -3.946490 3.095590 0.562190 -0.036610 0.403600 0.067860 2.699519 24.266341 11.234218 20.288343 -2.352224 -15.679653 3.376155 49.230333 -1.211652 1.798022 -1.631834 0.137810 0.028690 -0.238050 -0.159430 
-0.805900 14.435360 -5.617100 -49.442514 -2.521886 19.390136 -16.079388 11.460851 5.978351 12.909887 -9.280601 -42.162243 -33.015993 26.857850 48.296352 1.540846 13.052413 -0.051152 0.871360 0.683860 0.929950 17.966176 -7.753362 3.117954 16.679471 7.673571 -17.003052 -43.683937 12.644085 40.172806 -1.961221 -8.401770 1.375519 0.248020 -0.156760 0.442830 -1.893649 -4.833665 -9.200919 -5.146628 12.142586 61.217073 6.045772 10.653285 22.371456 0.870329 3.613663 -12.204895 2.923280 2.519237 46.101607 0.152280 7.834590 -20.427400 -10.335342 -24.366948 4.085534 -4.549627 -19.496322 -7.272112 28.632062 -4.701326 -4.639368 -3.886672 3.083861 0.631050 -0.105620 0.462800 0.061800 5.732284 27.593630 10.962685 15.634285 0.059893 -17.105240 -1.407941 49.988341 -2.933415 1.769460 -1.676452 0.144720 0.023340 -0.272630 -0.187510 
-0.718030 14.499840 -5.668020 -50.518634 -3.295657 21.104695 -15.947108 11.467579 5.965421 11.723707 -8.342334 -44.316193 -28.808445 24.930915 48.846094 1.295053 12.582042 0.010895 0.924970 0.735080 0.978220 18.047313 -8.142289 3.040535 14.117045 8.449512 -17.193321 -34.441057 10.257587 44.213010 -1.762673 -7.668992 1.542276 0.281130 -0.205620 0.463390 -2.199623 -4.144083 -9.093734 -3.045088 11.635107 62.194441 4.325668 11.423688 21.256034 0.806068 1.958817 -11.948655 -0.179056 3.394163 45.003382 -0.020910 7.239070 -23.644520 -11.030046 -24.941541 3.683556 -1.964172 -20.319922 -7.352302 27.121094 -4.651760 -4.468112 -3.871355 3.045887 0.679650 -0.153230 0.510290 0.042890 6.545485 29.741065 10.135944 12.662587 4.040983 -18.328752 -6.411051 50.161347 -4.810566 1.759075 -1.664579 0.160820 0.027320 -0.272390 -0.198350 
-0.629660 14.581470 -5.706340 -49.708359 -4.102744 22.947747 -15.861970 11.715800 5.881030 8.353024 -8.243712 -45.631432 -25.350046 22.493585 47.636456 1.011645 11.726340 0.218536 0.994830 0.801810 1.026330 18.046019 -8.550349 2.858447 10.144418 8.980323 -17.204935 -25.594723 7.317658 48.507972 -1.615236 -7.192635 1.643187 0.334070 -0.251650 0.459300 -2.313160 -3.908416 -8.907464 -3.344838 12.704261 62.486775 4.217861 11.949118 20.752741 0.248250 0.260401 -12.306004 -3.423735 4.279524 44.374581 0.691000 6.528200 -26.282460 -11.531839 -26.623816 3.629365 0.833206 -20.458281 -7.781045 25.691803 -4.251996 -4.260940 -3.852044 3.012492 0.733130 -0.211610 0.553570 0.046760 8.313964 33.332652 9.583510 8.057512 7.958420 -19.576128 -10.960413 48.278993 -6.251196 1.788775 -1.684203 0.161980 0.050880 -0.292200 -0.208400 
-0.572320 14.675890 -5.726920 -45.782087 -4.020160 24.548082 -15.843297 12.146126 5.888355 2.484476 -10.033665 -46.399184 -21.200953 19.782366 47.183188 0.772185 10.711062 0.494403 1.057610 0.879070 1.039670 17.958881 -9.007962 2.441693 5.452646 7.672720 -16.621370 -19.622016 4.404772 46.702781 -1.375538 -6.299745 1.889457 0.377730 -0.303840 0.450370 -2.212625 -4.158692 -8.657662 -6.288122 15.191878 62.627351 5.848289 11.960309 20.261153 -0.646948 -0.802871 -13.181106 -5.563171 4.634724 44.279372 2.691850 5.871200 -28.860070 -10.980363 -29.091741 3.675801 3.765575 -20.497216 -8.352553 24.160862 -3.567622 -3.977517 -3.834720 3.003779 0.785640 -0.279720 0.600630 0.056760 10.142590 37.249119 9.289200 3.358512 11.810619 -19.741444 -15.212810 42.581129 -6.731611 1.926186 -1.674770 0.177340 0.053590 -0.314320 -0.204220 
-0.524880 14.770570 -5.782990 -41.623900 -2.962735 26.613433 -15.816379 12.305519 6.065536 -3.140144 -12.248626 -47.741246 -16.621654 16.992894 47.086651 0.621440 9.698694 0.837280 1.006490 0.810340 0.982430 17.928258 -9.311133 2.135220 1.924752 6.267072 -17.222478 -14.499635 1.797013 43.333381 -1.121259 -5.387361 2.179015 0.311540 -0.311790 0.428940 -2.224532 -4.239636 -8.586621 -8.085341 16.311537 64.354297 6.523583 11.169885 16.739083 -0.906434 -2.725920 -14.333416 -9.655354 5.762610 44.781558 4.713210 5.100460 -29.814030 -10.043924 -30.851724 3.909725 5.597437 -20.193525 -8.546095 22.718479 -3.826821 -3.650560 -3.787816 2.983030 0.825160 -0.341550 0.611140 0.060710 11.104880 40.457168 8.588051 0.053604 16.089491 -18.417267 -17.265278 35.372396 -5.841313 2.157494 -1.543343 0.175090 0.049740 -0.300870 -0.184290 
-0.495750 14.824690 -5.840700 -38.910869 -2.622349 28.008343 -15.746806 12.261680 6.224784 -7.888963 -13.508665 -48.717120 -11.557726 15.186233 49.252247 0.611085 9.267161 1.008724 0.956650 0.719910 0.966880 17.968051 -9.567330 1.986200 0.524729 5.031672 -17.065195 -11.870296 0.550612 39.420681 -0.954603 -4.641661 2.431153 0.234090 -0.360560 0.379880 -2.395043 -3.884647 -8.595276 -8.337379 16.532412 66.737560 5.305821 10.851991 12.428547 -0.338253 -4.292051 -15.563355 -13.491361 6.980869 46.289743 5.731750 4.587960 -29.813900 -9.597643 -32.228292 3.787961 7.547230 -20.242993 -8.864472 21.592468 -4.121303 -3.318234 -3.703430 2.955408 0.869430 -0.422670 0.620510 0.057390 10.856853 43.031719 7.928993 -0.987555 19.611926 -17.296171 -19.163662 29.572691 -5.349712 2.374249 -1.437863 0.161480 0.030670 -0.312360 -0.194440 
-0.464570 14.846550 -5.893800 -37.061404 -2.404795 29.606718 -15.675905 12.113731 6.350817 -11.366094 -14.106715 -50.166549 -5.618033 13.405754 52.983931 0.568108 9.276823 1.006709 0.887520 0.613290 0.961110 18.031901 -9.745696 1.927870 -0.549259 4.439426 -17.441864 -9.192426 -0.570440 36.581569 -0.831716 -4.131198 2.597775 0.173850 -0.381050 0.353870 -2.597536 -3.353784 -8.626217 -7.645623 16.256994 68.300811 3.067754 11.183685 9.916408 0.645885 -4.797593 -16.763902 -15.087237 7.083487 47.269362 4.802060 4.273060 -31.010530 -7.895996 -33.653291 2.578416 9.547784 -21.920011 -9.161207 20.416693 -3.764307 -3.100059 -3.719720 2.831951 0.938550 -0.458930 0.627390 0.019260 7.990722 45.290725 7.536080 -1.279229 21.536530 -17.001712 -22.337780 23.770444 -5.377243 2.531676 -1.358983 0.112500 0.050630 -0.272470 -0.230730 
